<svg width="209.1" height="43.86" viewBox="0 0 124 26" fill="none" xmlns="http://www.w3.org/2000/svg">
<g clip-path="url(#clip0)">
<path d="M23.5068 4.16284C19.7915 4.16284 16.6542 6.66681 15.6394 10.1026H11.8186C11.7555 10.1026 11.7041 10.1544 11.7041 10.219V10.3902C11.7041 10.4545 11.7555 10.5063 11.8186 10.5063H15.5312C15.4786 10.7249 15.4332 10.9462 15.3977 11.171H7.90577C7.77417 11.171 7.66779 11.2787 7.66779 11.4119V11.7676C7.66779 11.9011 7.77417 12.0126 7.90577 12.0126H15.9675C15.9681 11.9991 15.9688 11.9835 15.9695 11.9744C16.2285 8.11523 19.3116 5.03074 23.133 4.84087C23.2023 4.70397 23.3407 4.60937 23.503 4.60937C23.7331 4.60937 23.9198 4.79924 23.9198 5.03296C23.9198 5.26669 23.7329 5.45589 23.503 5.45589C23.3394 5.45589 23.1997 5.35996 23.1313 5.22128C19.5077 5.41227 16.588 8.3454 16.3478 12.0115H17.6403C17.6272 12.1729 17.6188 12.3356 17.6188 12.5003C17.6188 12.664 17.6265 12.8258 17.6394 12.9865H9.99818C9.84509 12.9865 9.72095 13.1125 9.72095 13.2674V13.6817C9.72095 13.8373 9.84509 13.9635 9.99818 13.9635H15.4225C15.4617 14.1874 15.5078 14.4095 15.5641 14.6272H6.28842C6.12919 14.6272 6 14.7535 6 14.9086V15.3228C6 15.4784 6.12919 15.6047 6.28842 15.6047H15.8837C15.9732 15.8308 16.0725 16.0521 16.1809 16.2684H13.4215C13.37 16.2684 13.3283 16.3205 13.3283 16.3844V16.556C13.3283 16.6204 13.37 16.6724 13.4215 16.6724H16.3963C17.8173 19.1615 20.4684 20.837 23.5068 20.837C28.0441 20.837 31.722 17.1041 31.722 12.4997C31.722 7.89575 28.0441 4.16284 23.5068 4.16284ZM17.9125 14.4821C17.9226 14.4821 17.9386 14.4826 17.9533 14.4848C17.9533 14.485 17.9533 14.485 17.9533 14.4852C18.1645 14.5057 18.3306 14.6847 18.3306 14.9044C18.3306 15.003 18.2959 15.0922 18.2409 15.1639C18.3334 15.3522 18.4382 15.5325 18.549 15.7091L18.5508 15.7099C19.5972 17.3747 21.4218 18.4806 23.5068 18.4806C26.754 18.4806 29.3951 15.7976 29.3951 12.5006C29.3951 9.20283 26.754 6.52012 23.5068 6.52012C21.0983 6.52012 19.0245 7.99726 18.1136 10.1057H17.6965C18.6306 7.77644 20.882 6.13013 23.5068 6.13013C26.9656 6.13013 29.7792 8.9878 29.7792 12.5006C29.7792 16.0129 26.9656 18.8701 23.5068 18.8701C21.0467 18.8701 18.9142 17.4237 17.8873 15.3251C17.6691 15.3111 17.4962 15.129 17.4962 14.9041C17.4964 14.6704 17.682 14.4821 17.9125 14.4821ZM20.2629 12.5006C20.2629 10.6804 21.7153 9.20528 23.5068 9.20528C25.2987 9.20528 26.7509 10.6804 26.7509 12.5006C26.7509 14.3205 25.2987 15.7952 23.5068 15.7952C21.7153 15.795 20.2629 14.3203 20.2629 12.5006ZM23.5068 20.1692C19.8334 20.1692 16.7648 17.4945 16.0899 13.9635H16.475C17.144 17.2841 20.0429 19.7892 23.507 19.7892C27.4646 19.7892 30.6846 16.5195 30.6846 12.5006C30.6846 11.2583 30.3762 10.0879 29.8345 9.06326L30.1606 8.86805C30.7366 9.94986 31.0638 11.187 31.0638 12.5001C31.0636 16.729 27.6736 20.1692 23.5068 20.1692Z" fill="white"/>
<path d="M33.6045 20.8748H61.4571V19.6418H33.6045V20.8748Z" fill="white"/>
<path d="M33.6045 19.0225H61.4571V17.7898H33.6045V19.0225Z" fill="white"/>
<path d="M33.6045 15.9382V17.1712H61.4571V15.9382H33.6045Z" fill="white"/>
<path d="M63.6185 10.6625C63.5907 10.3571 63.5218 10.0608 63.4108 9.77367C63.3007 9.4863 63.1345 9.24078 62.9134 9.03689C62.6739 8.80516 62.3971 8.64579 62.0841 8.55764C61.7705 8.46949 61.4522 8.41629 61.13 8.39782C61.0195 8.38847 60.9085 8.38379 60.798 8.38379C60.687 8.38379 60.5813 8.37912 60.4801 8.36977L57.7148 8.38379C57.3643 8.38379 57.0579 8.30032 56.7952 8.1336C56.5324 7.96687 56.401 7.68908 56.401 7.29998C56.401 6.79068 56.5554 6.44544 56.8643 6.26491C57.1729 6.08417 57.5534 5.98912 58.0048 5.97999H63.1621V4.20146L57.7142 4.20191C56.6539 4.20191 55.7998 4.42606 55.1776 4.84765C54.5556 5.26947 54.2351 6.05901 54.2167 7.21673C54.2075 8.31902 54.5001 9.08096 55.0947 9.50255C55.6891 9.92415 56.498 10.13 57.5212 10.1207L59.9823 10.1347C60.3602 10.1441 60.6874 10.1997 60.9642 10.3014C61.2406 10.4034 61.4016 10.6718 61.4478 11.1075C61.5121 11.6635 61.3763 12.0199 61.0401 12.1775C60.7034 12.3351 60.3049 12.4088 59.8441 12.3996H54.6176V14.1779H60.1759C61.2357 14.1779 62.0745 13.9723 62.6919 13.5598C63.3095 13.1475 63.628 12.3627 63.6464 11.2045C63.6464 11.1121 63.6438 11.0218 63.6392 10.9338C63.6348 10.8455 63.628 10.7551 63.6185 10.6625ZM47.324 4.20146L43.1638 14.1777H45.3468L46.2256 11.802H50.5098L51.4159 14.1777H53.7226L49.5211 4.20146H47.324ZM46.8985 10.0234L48.3404 6.18834L49.8371 10.0234H46.8985ZM43.4761 10.3221C43.5221 9.94218 43.5452 9.55331 43.5452 9.15486C43.5452 8.78424 43.5197 8.41384 43.4691 8.04322C43.4182 7.67283 43.3467 7.32068 43.2546 6.98723C43.0335 6.25579 42.6878 5.65834 42.2176 5.19512C41.7475 4.73168 41.1439 4.40736 40.4065 4.22216C40.1115 4.13891 39.8027 4.07881 39.4801 4.04164C39.1575 4.00447 38.8397 3.99067 38.526 3.99979C38.2312 3.99979 37.9362 4.01827 37.6412 4.05544C37.346 4.09261 37.0604 4.14359 36.7841 4.20814C36.028 4.40269 35.4172 4.72923 34.9518 5.188C34.4864 5.64677 34.1337 6.24177 33.8946 6.97321V6.98723C33.7931 7.30221 33.7189 7.65212 33.6729 8.03632C33.6268 8.42097 33.604 8.80739 33.604 9.19671C33.604 9.5858 33.629 9.97 33.6801 10.35C33.7308 10.7299 33.8025 11.0816 33.8946 11.4057C34.1155 12.1563 34.4658 12.7607 34.9452 13.219C35.4244 13.6778 36.0375 13.9945 36.7841 14.1706C37.0604 14.2356 37.3416 14.2866 37.6272 14.3237C37.913 14.3607 38.1988 14.3792 38.4848 14.3792C38.807 14.3792 39.125 14.3631 39.4384 14.3304C39.7518 14.2979 40.0561 14.2447 40.3513 14.1706C41.1069 13.9945 41.7243 13.6775 42.2037 13.219C42.683 12.7605 43.0333 12.1563 43.2543 11.4057C43.3561 11.0632 43.4298 10.7021 43.4761 10.3221ZM41.2154 9.96778C41.1832 10.2226 41.1393 10.4702 41.0843 10.711C40.9922 11.1373 40.8261 11.5077 40.5866 11.8227C40.3467 12.1379 40.015 12.3691 39.5911 12.5174C39.4343 12.573 39.2684 12.6149 39.0934 12.6427C38.9182 12.6703 38.7431 12.6843 38.5679 12.6843C38.3927 12.6843 38.2178 12.6703 38.0426 12.6427C37.8674 12.6149 37.7015 12.573 37.5449 12.5174C37.1208 12.3691 36.7911 12.1379 36.5562 11.8227C36.3209 11.5075 36.1531 11.1373 36.0515 10.711C35.996 10.47 35.9522 10.2226 35.9201 9.96778C35.8877 9.71291 35.8717 9.45625 35.8717 9.19671C35.8717 8.94651 35.8855 8.69431 35.9131 8.43944C35.9405 8.18457 35.9866 7.93215 36.0513 7.68195V7.69598C36.1618 7.26993 36.3323 6.89975 36.5628 6.58456C36.7933 6.26937 37.1203 6.03809 37.5447 5.88984C37.7013 5.83419 37.8671 5.79257 38.0424 5.76474C38.2176 5.73692 38.3924 5.7229 38.5677 5.7229C38.7429 5.7229 38.918 5.73692 39.0932 5.76474C39.2682 5.79257 39.434 5.83419 39.5909 5.88984C40.0148 6.02896 40.3465 6.25779 40.5864 6.57744C40.8259 6.89731 40.9919 7.26971 41.0841 7.69575C41.1389 7.93682 41.1828 8.18457 41.2152 8.43944C41.2477 8.69431 41.2639 8.94651 41.2639 9.19671C41.2641 9.45603 41.2479 9.71291 41.2154 9.96778ZM64.6391 14.1777H66.8238V4.20146H64.6391V14.1777ZM110.924 8.045C110.873 7.67461 110.802 7.32246 110.71 6.98902C110.488 6.25757 110.142 5.66013 109.672 5.19691C109.202 4.73346 108.599 4.40914 107.862 4.22394C107.566 4.14069 107.257 4.08059 106.935 4.04342C106.612 4.00625 106.294 3.99245 105.981 4.00157C105.686 4.00157 105.391 4.02005 105.096 4.05722C104.801 4.09439 104.515 4.14537 104.239 4.20992C103.483 4.40447 102.872 4.73101 102.406 5.18978C101.941 5.64855 101.588 6.24355 101.349 6.97499V6.98902C101.248 7.30399 101.173 7.65391 101.128 8.0381C101.082 8.42275 101.059 8.80917 101.059 9.19849C101.059 9.58758 101.084 9.97178 101.135 10.3518C101.186 10.7317 101.257 11.0834 101.349 11.4075C101.57 12.1581 101.921 12.7625 102.4 13.2208C102.88 13.6795 103.492 13.9963 104.239 14.1724C104.516 14.2374 104.797 14.2883 105.082 14.3255C105.368 14.3625 105.654 14.3809 105.94 14.3809C106.262 14.3809 106.58 14.3649 106.894 14.3322C107.207 14.2997 107.511 14.2465 107.806 14.1724C108.562 13.9963 109.179 13.6793 109.659 13.2208C110.138 12.7622 110.488 12.1581 110.71 11.4075C110.811 11.0649 110.885 10.7039 110.931 10.3239C110.977 9.94396 111 9.55509 111 9.15664C111 8.78602 110.974 8.41562 110.924 8.045ZM108.67 9.96933C108.638 10.2242 108.594 10.4717 108.539 10.7126C108.447 11.1388 108.28 11.5092 108.041 11.8242C107.801 12.1394 107.47 12.3707 107.046 12.5189C106.889 12.5746 106.723 12.6164 106.548 12.6443C106.373 12.6719 106.198 12.6859 106.022 12.6859C105.847 12.6859 105.672 12.6719 105.497 12.6443C105.322 12.6164 105.156 12.5746 104.999 12.5189C104.575 12.3707 104.245 12.1394 104.011 11.8242C103.776 11.509 103.608 11.1388 103.506 10.7126C103.45 10.4715 103.407 10.2242 103.374 9.96933C103.342 9.71446 103.326 9.45781 103.326 9.19827C103.326 8.94807 103.34 8.69587 103.367 8.441C103.395 8.18613 103.441 7.93371 103.506 7.68351V7.69753C103.616 7.27149 103.787 6.90131 104.017 6.58612C104.248 6.27092 104.575 6.03965 104.999 5.8914C105.156 5.83575 105.322 5.79413 105.497 5.7663C105.672 5.73848 105.847 5.72445 106.022 5.72445C106.197 5.72445 106.373 5.73848 106.548 5.7663C106.723 5.79413 106.889 5.83575 107.046 5.8914C107.469 6.03052 107.801 6.25935 108.041 6.579C108.28 6.89886 108.446 7.27127 108.539 7.69731C108.594 7.93838 108.638 8.18613 108.67 8.441C108.702 8.69587 108.719 8.94807 108.719 9.19827C108.719 9.45781 108.703 9.71469 108.67 9.96933ZM89.6704 4.87993C89.4746 4.70564 89.2592 4.59234 89.0269 4.47837C88.8183 4.37598 88.5558 4.32834 88.3262 4.28471C88.0731 4.23663 87.8169 4.21549 87.5598 4.2048H81.9544V14.1775H84.0227V10.6903L86.5296 10.7043H87.1872C87.607 10.6859 88.02 10.6371 88.4264 10.5583C88.833 10.4795 89.209 10.3155 89.5564 10.0653C89.9672 9.75943 90.262 9.37523 90.4396 8.91201C90.5348 8.66471 90.6046 8.40739 90.646 8.14539C90.8259 7.01907 90.5486 5.66124 89.6704 4.87993ZM87.8443 8.62709C87.4789 8.82631 87.0448 8.92559 86.5428 8.92559H84.0227V5.97999H86.42V5.98311C86.9404 5.98311 87.4034 6.07972 87.8101 6.25111C88.2167 6.42251 88.4102 6.82786 88.3922 7.46693C88.3922 8.04144 88.2097 8.42787 87.8443 8.62709ZM77.2179 10.6625C77.1901 10.3571 77.1208 10.0608 77.0102 9.77367C76.9001 9.4863 76.7339 9.24078 76.5128 9.03689C76.2728 8.80516 75.9965 8.64579 75.6831 8.55764C75.3699 8.46949 75.0516 8.41629 74.729 8.39782C74.6184 8.38847 74.5079 8.38379 74.3973 8.38379C74.2864 8.38379 74.1806 8.37912 74.0795 8.36977L71.3144 8.38379C70.9635 8.38379 70.6578 8.30032 70.3948 8.1336C70.1322 7.96687 70.0006 7.68908 70.0006 7.29998C70.0006 6.79068 70.1548 6.44544 70.4636 6.26491C70.7725 6.08417 71.153 5.98912 71.6048 5.97999H76.7617V4.20146L71.3008 4.19879C70.2406 4.19879 69.3997 4.42606 68.7772 4.84765C68.1547 5.26947 67.8347 6.05901 67.8163 7.21673C67.8069 8.31902 68.0995 9.08096 68.6941 9.50255C69.2887 9.92415 70.0974 10.13 71.1208 10.1207L73.5814 10.1347C73.9593 10.1441 74.287 10.1997 74.5638 10.3014C74.8402 10.4034 75.0012 10.6718 75.0474 11.1075C75.1117 11.6635 74.9759 12.0199 74.6393 12.1775C74.303 12.3351 73.9045 12.4088 73.4437 12.3996H68.2175V14.1779H73.7753C74.8351 14.1779 75.6738 13.9723 76.2917 13.5598C76.9093 13.1475 77.2274 12.3627 77.2458 11.2045C77.2458 11.1121 77.2432 11.0218 77.239 10.9338C77.2337 10.8455 77.2269 10.7551 77.2179 10.6625ZM99.8031 9.01596C100.13 8.51134 100.289 7.91167 100.28 7.21673C100.28 7.15173 100.278 7.08696 100.274 7.02218C100.269 6.95718 100.267 6.89241 100.267 6.82741C100.239 6.48484 100.163 6.15161 100.038 5.82729C99.9134 5.50297 99.727 5.22072 99.4785 4.97965C99.2017 4.70163 98.8817 4.51176 98.5176 4.40981C98.1535 4.30786 97.7824 4.24754 97.4047 4.22906C97.3027 4.21971 97.2038 4.21504 97.1071 4.21504C97.0108 4.21504 96.9112 4.21037 96.8101 4.20102H91.6663V14.1773H93.7539V10.2598H96.2155L98.4003 14.1777H100.75L98.2755 10.0234C98.9668 9.8567 99.4758 9.52103 99.8031 9.01596ZM97.6324 8.30744C97.2683 8.44189 96.8652 8.50889 96.4225 8.50889H96.3668C96.3484 8.50889 96.3304 8.51824 96.312 8.50889H93.7537V5.97999H96.312V5.99402C96.782 5.99402 97.2082 6.05434 97.5903 6.17476C97.9728 6.29519 98.1642 6.65201 98.1642 7.24478C98.1735 7.81907 97.9965 8.17322 97.6324 8.30744Z" fill="white"/>
<path d="M67.1606 19.8081L65.4981 15.9385H64.6392V20.8748H65.2162V16.7334L66.9753 20.8745H67.3253L69.0843 16.7334V20.8745H69.6614V15.9385H68.8231L67.1606 19.8081ZM83.9598 17.2979C83.9598 16.0781 82.9642 15.9385 82.0226 15.9385H80.779V20.8748H81.3561V18.6577H82.0985L83.4176 20.8748H84.1249L82.744 18.6019C83.5003 18.483 83.9598 18.016 83.9598 17.2979ZM81.8715 18.1137H81.3561V16.4823H82.167C82.7302 16.4823 83.3415 16.5869 83.3415 17.2979C83.3417 18.1137 82.5107 18.1137 81.8715 18.1137ZM74.9865 15.9385L72.843 20.8748H73.4964L73.9976 19.6614H76.4291L76.9239 20.8748H77.5972L75.5294 15.9385H74.9865ZM74.2241 19.1176L75.248 16.6915L76.2093 19.1176H74.2241ZM100.818 16.4823H102.426V20.8745H103.003V16.4823H104.61V15.9383H100.818V16.4823ZM109.544 18.0928C108.767 17.8417 108.52 17.6396 108.52 17.1864C108.52 16.6007 109.049 16.3568 109.557 16.3568C109.908 16.3568 110.251 16.4961 110.444 16.8097L110.917 16.3915C110.56 15.9663 110.1 15.8127 109.557 15.8127C108.706 15.8127 107.902 16.2869 107.902 17.2349C107.902 18.0576 108.424 18.3643 109.111 18.5945C109.976 18.8874 110.382 18.9918 110.382 19.5984C110.382 20.1631 109.819 20.4558 109.324 20.4558C108.905 20.4558 108.493 20.268 108.287 19.9054L107.792 20.3167C108.122 20.812 108.727 21.0001 109.29 21.0001C110.169 21.0001 111 20.5398 111 19.5568C111 18.5876 110.299 18.3365 109.544 18.0928ZM91.0097 15.9385H90.1787L87.8838 18.0719V15.9385H87.3068V20.8748H87.8838V18.3646L90.2815 20.8745H91.1268L88.6052 18.1905L91.0097 15.9385ZM94.3089 20.8748H97.6359V20.331H94.9125V18.574H97.3339V18.03H94.9125V16.4825H97.6359V15.9387H94.3089V20.8748Z" fill="white"/>
</g>
<defs>
<clipPath id="clip0">
<rect width="105" height="17" fill="white" transform="translate(6 4)"/>
</clipPath>
</defs>
</svg>
